HIERARCHY
ROOT Hips
{
	OFFSET 0.00000 0.00000 0.00000
	CHANNELS 6 Xposition Yposition Zposition Zrotation Yrotation Xrotation 
	JOINT LHipJoint
	{
		OFFSET 0 0 0
		CHANNELS 3 Zrotation Yrotation Xrotation
		JOINT LeftHip
		{
			OFFSET 1.58895 -1.83665 0.71753
			CHANNELS 3 Zrotation Yrotation Xrotation
			JOINT LeftKnee
			{
				OFFSET 2.50528 -6.88321 0.00000
				CHANNELS 3 Zrotation Yrotation Xrotation
				JOINT LeftAnkle
				{
					OFFSET 2.63244 -7.23257 0.00000
					CHANNELS 3 Zrotation Yrotation Xrotation
					JOINT LeftToe
					{
						OFFSET 0.23691 -0.65090 1.72750
						CHANNELS 3 Zrotation Yrotation Xrotation
						End Site
						{
							OFFSET 0.00000 -0.00000 0.92561
						}
					}
				}
			}
		}
	}
	JOINT RHipJoint
	{
		OFFSET 0 0 0
		CHANNELS 3 Zrotation Yrotation Xrotation
		JOINT RightHip
		{
			OFFSET -1.51435 -1.83665 0.71753
			CHANNELS 3 Zrotation Yrotation Xrotation
			JOINT RightKnee
			{
				OFFSET -2.54551 -6.99375 0.00000
				CHANNELS 3 Zrotation Yrotation Xrotation
				JOINT RightAnkle
				{
					OFFSET -2.66027 -7.30903 0.00000
					CHANNELS 3 Zrotation Yrotation Xrotation
					JOINT RightToe
					{
						OFFSET -0.22981 -0.63138 2.03959
						CHANNELS 3 Zrotation Yrotation Xrotation
						End Site
						{
							OFFSET -0.00000 -0.00000 1.07060
						}
					}
				}
			}
		}
	}
	JOINT lowerback
	{
		OFFSET 0 0 0
		CHANNELS 3 Zrotation Yrotation Xrotation
		JOINT Chest
		{
			OFFSET -0.02651 1.86275 -0.11152
			CHANNELS 3 Zrotation Yrotation Xrotation
			JOINT Chest2
			{
				OFFSET 0.01019 1.86224 0.04087
				CHANNELS 3 Zrotation Yrotation Xrotation
				JOINT lowerneck
				{
					OFFSET 0 0 0
					CHANNELS 3 Zrotation Yrotation Xrotation
					JOINT Neck
					{
						OFFSET -0.01926 1.80512 0.08867
						CHANNELS 3 Zrotation Yrotation Xrotation
						JOINT Head
						{
							OFFSET 0.05516 1.76451 -0.38475
							CHANNELS 3 Zrotation Yrotation Xrotation
							End Site
							{
								OFFSET 0.01592 1.82587 -0.14001
							}
						}
					}
				}
				JOINT LeftCollar
				{
					OFFSET 0 0 0
					CHANNELS 3 Zrotation Yrotation Xrotation
					JOINT LeftShoulder
					{
						OFFSET 3.47116 1.51376 0.14491
CHANNELS 3 Zrotation Xrotation Yrotation
						JOINT LeftElbow
						{
OFFSET 0 -4.780950 0.000000
CHANNELS 3 Zrotation Xrotation Yrotation
							JOINT LeftWrist
							{
OFFSET 0 -3.586150 -0.000000
CHANNELS 3 Zrotation Xrotation Yrotation
								JOINT lhand
								{
									OFFSET 0 0 0
CHANNELS 3 Zrotation Xrotation Yrotation
									JOINT LFingers
									{
OFFSET 0 -0.659810 0.000000
CHANNELS 3 Zrotation Xrotation Yrotation
										End Site
										{
OFFSET 0 -0.531960 0.000000
										}
									}
								}
								JOINT LThumb
								{
OFFSET 0 0.000000 0.000000
CHANNELS 3 Zrotation Xrotation Yrotation
									End Site
									{
OFFSET 0 -0.540080 0.540080
									}
								}
							}
						}
					}
				}
				JOINT RightCollar
				{
					OFFSET 0 0 0
					CHANNELS 3 Zrotation Yrotation Xrotation
					JOINT RightShoulder
					{
						OFFSET -3.31725 1.61216 0.35156
CHANNELS 3 Zrotation Xrotation Yrotation
						JOINT RightElbow
						{
OFFSET 0 -4.489130 0.000000
CHANNELS 3 Zrotation Xrotation Yrotation
							JOINT RightWrist
							{
OFFSET 0 -3.705100 0.000000
CHANNELS 3 Zrotation Xrotation Yrotation
								JOINT rhand
								{
									OFFSET 0 0 0
CHANNELS 3 Zrotation Xrotation Yrotation
									JOINT RFingers
									{
OFFSET 0 -0.449140 0.000000
CHANNELS 3 Zrotation Xrotation Yrotation
										End Site
										{
OFFSET 0 -0.362110 0.000000
										}
									}
								}
								JOINT RThumb
								{
OFFSET 0 0.000000 0.000000
CHANNELS 3 Zrotation Xrotation Yrotation
									End Site
									{
OFFSET 0 -0.367630 0.367630
									}
								}
							}
						}
					}
				}
			}
		}
	}
}
MOTION
Frames: 6
Frame Time: 0.008333333333333333
-0.884392 17.875840 5.761931 -10.946527 -60.231152 4.733621 0.000000 0.000000 0.000000 -12.292682 23.478838 23.446057 0.658788 -5.191243 -14.454861 -1.361034 27.466290 -30.456921 0.091832 1.954854 5.380866 0.000000 0.000000 0.000000 22.350207 9.745583 14.708158 -0.903025 6.055891 -16.946686 -1.485785 -2.564499 22.357266 -1.984898 -8.834096 25.278065 3.965307 -6.396483 10.344314 3.367795 -7.862066 -0.820780 2.604829 -3.950113 -6.695199 18.498130 11.772543 -18.264369 -9.445953 13.318187 19.465447 -4.215262 6.446840 11.253049 0.000000 0.000000 0.000000 59.288222 -34.753349 49.811581 20.269483 -30.965619 5.669365 17.889477 -37.462417 24.564301 0.000000 0.000000 0.000000 -7.125000 0.000000 0.000000 -7.064173 4.490944 -6.540251 0.000000 0.000000 0.000000 -105.319475 -43.621869 9.062061 -143.655793 -45.658255 -104.201976 -1.130203 -80.594165 57.922910 0.000000 0.000000 0.000000 7.125000 0.000000 0.000000 87.222825 72.578979 -68.827586
-0.891539 17.873516 5.781256 -11.040826 -60.556251 4.836182 0.000000 0.000000 0.000000 -12.349171 23.667691 23.506265 0.661856 -5.203179 -14.488851 -1.365125 27.558733 -30.604558 0.085777 1.888621 5.197991 0.000000 0.000000 0.000000 22.352106 9.806343 14.706255 -0.895508 6.031351 -16.875490 -1.506779 -2.510203 22.532661 -1.998664 -8.863211 25.368366 4.153125 -6.435211 10.292497 3.413417 -7.891219 -0.843379 2.552333 -3.970806 -6.709320 18.606153 11.909448 -18.437235 -9.818047 13.535638 19.284951 -4.318493 6.504711 11.289147 0.000000 0.000000 0.000000 58.797242 -34.148731 50.058113 20.361066 -31.074851 5.716556 17.746401 -37.126139 24.650387 0.000000 0.000000 0.000000 -7.125000 0.000000 0.000000 -7.158851 4.425187 -6.638223 0.000000 0.000000 0.000000 -106.837226 -39.777076 7.110583 -146.567021 -43.658320 -106.279222 -1.544018 -82.771556 58.101609 0.000000 0.000000 0.000000 7.125000 0.000000 0.000000 87.719743 72.726701 -69.511720
-0.900372 17.870670 5.794900 -11.582306 -60.817765 5.237531 0.000000 0.000000 0.000000 -12.067906 23.902231 23.795820 0.685389 -5.292884 -14.745714 -1.381119 27.655695 -30.674987 0.083819 1.867445 5.139393 0.000000 0.000000 0.000000 22.642823 9.930534 14.738534 -0.870825 5.949756 -16.638737 -1.502598 -2.227052 22.564945 -1.928767 -8.715862 24.910642 4.567392 -6.393619 10.291576 3.540840 -7.774143 -0.954134 2.454746 -3.926556 -6.866150 18.384365 11.822714 -18.303309 -9.973046 13.533659 19.086132 -4.348683 6.474626 11.184615 0.000000 0.000000 0.000000 58.008205 -33.628915 49.716661 20.435142 -31.163034 5.754843 17.645052 -36.995564 24.807647 0.000000 0.000000 0.000000 -7.125000 0.000000 0.000000 -7.233526 4.280510 -6.728305 0.000000 0.000000 0.000000 -106.312919 -37.964932 8.151828 -147.314090 -43.086579 -106.792691 -1.166813 -83.084293 58.259377 0.000000 0.000000 0.000000 7.125000 0.000000 0.000000 88.284696 72.602641 -69.952085
-0.917078 17.858131 5.798352 -14.295074 -60.958296 7.171960 0.000000 0.000000 0.000000 -10.334091 24.281723 24.602413 0.714208 -5.400620 -15.054796 -1.389324 27.679082 -30.660468 0.095093 1.988796 5.474670 0.000000 0.000000 0.000000 24.238870 10.202244 15.224709 -0.840627 5.848247 -16.344784 -1.472201 -2.057338 22.368030 -1.892078 -8.637653 24.668298 5.721985 -6.543045 10.692126 3.921486 -7.786859 -0.869673 2.284995 -3.969538 -7.106524 18.548528 11.951149 -18.168136 -10.159420 13.732668 18.922783 -4.406169 6.559245 11.158806 0.000000 0.000000 0.000000 57.552650 -32.773821 49.828220 20.513149 -31.255604 5.795241 17.324769 -36.969387 24.940560 0.000000 0.000000 0.000000 -7.125000 0.000000 0.000000 -7.439942 4.194214 -6.935674 0.000000 0.000000 0.000000 -105.802004 -36.856154 9.012749 -147.772406 -42.727776 -107.104969 -0.374739 -83.606263 58.342603 0.000000 0.000000 0.000000 7.125000 0.000000 0.000000 88.676762 72.337777 -70.049928
-0.924249 17.856137 5.810670 -14.510894 -61.149091 7.340514 0.000000 0.000000 0.000000 -10.265021 24.388455 24.867899 0.743307 -5.507318 -15.361267 -1.445845 27.890466 -30.662134 0.107229 2.111608 5.814207 0.000000 0.000000 0.000000 24.331951 10.269391 15.139606 -0.809576 5.741827 -16.037165 -1.481703 -1.893629 22.482025 -1.911574 -8.679480 24.797583 5.875065 -6.671059 10.702531 3.954906 -7.935706 -0.880263 2.268265 -4.047664 -7.142425 18.840746 12.136416 -18.124252 -10.418035 13.970561 18.696780 -4.496971 6.659019 11.150229 0.000000 0.000000 0.000000 57.300854 -32.038877 50.424022 20.508020 -31.249495 5.792578 16.831536 -36.685086 25.248875 0.000000 0.000000 0.000000 -7.125000 0.000000 0.000000 -7.764830 3.955878 -7.279071 0.000000 0.000000 0.000000 -105.385208 -35.610261 9.500478 -148.478534 -42.161352 -107.581194 -0.373990 -83.748478 58.198825 0.000000 0.000000 0.000000 7.125000 0.000000 0.000000 88.225278 72.334075 -69.576405
-0.932082 17.854605 5.823245 -14.629889 -61.340988 7.457319 0.000000 0.000000 0.000000 -10.277226 24.436104 25.049180 0.762828 -5.577622 -15.563705 -1.467089 28.022759 -30.766552 0.119254 2.225725 6.129951 0.000000 0.000000 0.000000 24.358706 10.305316 15.051236 -0.787176 5.663903 -15.812308 -1.491103 -1.738064 22.594512 -1.921068 -8.699735 24.860460 5.970047 -6.780974 10.673995 4.047848 -8.067823 -0.911697 2.338667 -4.115386 -7.161996 18.893529 12.278885 -18.065383 -10.638718 14.206251 18.408751 -4.538819 6.745593 11.093645 0.000000 0.000000 0.000000 56.886520 -31.345685 50.917468 20.499104 -31.238952 5.787949 16.542800 -36.148834 25.550540 0.000000 0.000000 0.000000 -7.125000 0.000000 0.000000 -7.963510 3.693937 -7.508125 0.000000 0.000000 0.000000 -105.153513 -34.194539 9.802612 -149.384191 -41.413922 -108.184544 -0.898367 -83.714297 58.231421 0.000000 0.000000 0.000000 7.125000 0.000000 0.000000 88.240647 72.511299 -69.799675
